<svg enable-background="new 0 0 512 512" viewBox="0 0 512 512" xmlns="http://www.w3.org/2000/svg" xmlns:xlink="http://www.w3.org/1999/xlink" width="300" height="300" version="1.1" xmlns:svgjs="http://svgjs.dev/svgjs"><g width="100%" height="100%" transform="matrix(1,0,0,1,0,0)"><linearGradient id="SVGID_1_" gradientUnits="userSpaceOnUse" x1="256" x2="256" y1="506" y2="6"><stop offset="0" stop-color="#0e4da3"/><stop offset=".838" stop-color="#c341ae"/></linearGradient><g id="_x30_1_Chatbot"><g><circle cx="256" cy="256" fill="#4b1325" r="250" data-original-color="SVGID_1_" stroke="none" stroke-opacity="1" fill-opacity="1"/><g fill="#fff"><path d="m118.861 355.86c.387 3.049-3.085 14.408-7.809 25.433-.624 1.456-.265 3.148.897 4.226 1.161 1.077 2.876 1.309 4.281.577 11.506-5.985 25.795-12.201 29.185-12.042 16.774 8.156 35.978 12.466 55.56 12.466 26.98 0 52.853-8.136 72.853-22.909 1.666-1.23 2.019-3.579.789-5.244-1.232-1.667-3.579-2.019-5.244-.789-18.719 13.827-43.01 21.442-68.397 21.442-18.558 0-36.731-4.095-52.539-11.837-3.448-1.705-12.435.913-26.763 7.794 7.368-19.846 3.961-23.047 2.729-24.203-15.898-14.788-24.653-33.7-24.653-53.254 0-24.332 13.369-47.206 36.681-62.755 1.722-1.15 2.188-3.478 1.039-5.201-1.15-1.721-3.479-2.189-5.201-1.039-25.433 16.965-40.019 42.113-40.019 68.995 0 21.487 9.451 42.188 26.611 58.34z" fill="#dfd8bc" fill-opacity="1" data-original-color="#ffffffff" stroke="none" stroke-opacity="1"/><path d="m282.588 125.479c-75.632 0-137.163 50.287-137.163 112.098s61.531 112.1 137.163 112.1c24.829 0 49.144-5.472 70.333-15.829 3.909-.529 22.617 7.5 37.828 15.406 1.407.729 3.12.498 4.281-.579 1.161-1.078 1.52-2.77.896-4.226-6.345-14.806-10.815-29.794-9.934-33.198 21.774-20.396 33.757-46.545 33.757-73.674.001-61.811-61.53-112.098-137.161-112.098zm98.012 180.547c-3.787 3.527-2.233 14.286 4.614 32.031-14.775-7.222-30.328-13.531-35.411-11.033-20.21 9.913-43.452 15.153-67.214 15.153-71.497 0-129.663-46.923-129.663-104.6 0-57.676 58.167-104.598 129.663-104.598 71.495 0 129.662 46.923 129.662 104.598-.001 25.141-11.241 49.45-31.651 68.449z" fill="#dfd8bc" fill-opacity="1" data-original-color="#ffffffff" stroke="none" stroke-opacity="1"/><path d="m358.413 228.175c-.782 0-1.555.042-2.317.121-8.603-19.821-28.358-33.724-51.306-33.724h-18.45l.007-13.91c6.03-1.651 10.48-7.164 10.48-13.711 0-7.856-6.383-14.248-14.229-14.248-7.856 0-14.248 6.392-14.248 14.248 0 6.547 4.457 12.061 10.497 13.712l-.007 13.909h-18.454c-22.949 0-42.703 13.902-51.306 33.724-.762-.079-1.534-.121-2.317-.121-12.299 0-22.305 10.006-22.305 22.305s10.006 22.305 22.305 22.305c.782 0 1.555-.042 2.317-.121 8.603 19.821 28.358 33.724 51.306 33.724h44.404c22.949 0 42.703-13.902 51.306-33.724.762.079 1.534.121 2.317.121 12.299 0 22.305-10.006 22.305-22.305s-10.006-22.305-22.305-22.305zm-82.563-61.223c0-3.721 3.027-6.748 6.748-6.748 3.71 0 6.729 3.027 6.729 6.748 0 3.71-3.019 6.729-6.729 6.729-3.721-.001-6.748-3.02-6.748-6.729zm77.347 83.527c0 4.515-.667 8.869-1.829 13.018-4.618-2.509-7.76-7.404-7.76-13.018s3.142-10.509 7.76-13.018c1.162 4.15 1.829 8.503 1.829 13.018zm-92.811-48.407h22.201.001 22.202c19.522 0 36.34 11.639 43.989 28.322-5.432 2.617-9.648 7.353-11.551 13.147-2.966-9.566-11.897-16.534-22.426-16.534h-64.43c-10.528 0-19.458 6.968-22.424 16.534-1.903-5.793-6.119-10.53-11.551-13.147 7.65-16.683 24.467-28.322 43.989-28.322zm70.391 48.407c0 8.807-7.166 15.973-15.974 15.973h-64.43c-8.807 0-15.973-7.166-15.973-15.973s7.166-15.973 15.973-15.973h64.43c8.808 0 15.974 7.166 15.974 15.973zm-118.798 0c0-4.515.667-8.869 1.829-13.018 4.618 2.509 7.76 7.404 7.76 13.018s-3.142 10.509-7.76 13.018c-1.162-4.149-1.829-8.503-1.829-13.018zm-20.021 0c0-8.067 6.49-14.637 14.521-14.79-1.295 4.714-2.001 9.67-2.001 14.79s.706 10.076 2.001 14.79c-8.031-.152-14.521-6.722-14.521-14.79zm112.832 48.407h-44.404c-19.522 0-36.339-11.639-43.988-28.322 5.432-2.617 9.648-7.353 11.551-13.147 2.966 9.566 11.896 16.534 22.424 16.534h64.43c10.528 0 19.459-6.968 22.426-16.534 1.903 5.793 6.119 10.53 11.551 13.147-7.65 16.683-24.468 28.322-43.99 28.322zm53.907-33.616c1.295-4.714 2.001-9.67 2.001-14.79s-.706-10.076-2.001-14.79c8.031.153 14.521 6.723 14.521 14.79s-6.49 14.637-14.521 14.79z" fill="#dfd8bc" fill-opacity="1" data-original-color="#ffffffff" stroke="none" stroke-opacity="1"/><path d="m257.758 239.779c-5.894 0-10.688 4.795-10.688 10.69 0 5.906 4.795 10.71 10.688 10.71 5.907 0 10.712-4.805 10.712-10.71-.001-5.895-4.805-10.69-10.712-10.69zm0 13.9c-1.758 0-3.188-1.44-3.188-3.21 0-1.759 1.431-3.19 3.188-3.19 1.771 0 3.212 1.431 3.212 3.19-.001 1.769-1.441 3.21-3.212 3.21z" fill="#dfd8bc" fill-opacity="1" data-original-color="#ffffffff" stroke="none" stroke-opacity="1"/><path d="m296.707 250.468c0 5.906 4.795 10.71 10.688 10.71 5.907 0 10.712-4.805 10.712-10.71 0-5.895-4.805-10.69-10.712-10.69-5.893.001-10.688 4.796-10.688 10.69zm13.9 0c0 1.77-1.44 3.21-3.212 3.21-1.758 0-3.188-1.44-3.188-3.21 0-1.759 1.431-3.19 3.188-3.19 1.772.001 3.212 1.431 3.212 3.19z" fill="#dfd8bc" fill-opacity="1" data-original-color="#ffffffff" stroke="none" stroke-opacity="1"/></g></g></g><g id="Layer_1"/></g></svg>